<svg xmlns="http://www.w3.org/2000/svg" width="74" height="54" fill-rule="evenodd"><path d="M42.95 20.256l-4.02 3.933-3.733-7.912 1.928-4.55c.487-.907 1.285-.92 1.772 0l4.054 8.528z" fill="#ffa000"/><path fill="#f57f17" d="M38.93 24.187L23.887 38.883l11.3-22.606z"/><path d="M47.36 14.24c.72-.72 1.462-.478 1.65.546l3.91 23.897-12.97 8.18c-.455.267-1.66.372-1.66.372s-1.097-.14-1.518-.384l-12.883-7.97L47.36 14.24z" fill="#ffca28"/><path d="M35.197 16.277l-11.3 22.606 5.04-33.042c.19-1.024.742-1.128 1.24-.22l5.03 10.657z" fill="#ffa000"/></svg>