<svg xmlns="http://www.w3.org/2000/svg" width="73" height="54" fill-rule="nonzero"><path d="M36.495 8.5l.997 1.895a5.65 5.65 0 0 0 .753.948c.834.845 1.627 1.73 2.34 2.677 1.69 2.245 2.828 4.738 3.64 7.434.488 1.647.753 3.336.773 5.045.082 5.108-1.648 9.493-5.135 13.138a14.87 14.87 0 0 1-1.832 1.586c-.345 0-.51-.268-.65-.515-.265-.453-.427-.97-.51-1.483-.123-.618-.203-1.236-.163-1.874v-.288c-.028-.06-.333-28.417-.21-28.562h0z" fill="#599636"/><path d="M37.306 8.54c-.04-.084-.082-.02-.123.02.02.42-.123.796-.347 1.155-.246.356-.572.63-.9.923-1.817 1.614-3.246 3.564-4.39 5.745-1.524 2.935-2.31 6.08-2.53 9.392-.102 1.194.368 5.41.735 6.626 1 3.23 2.8 5.934 5.127 8.282.572.565 1.184 1.1 1.817 1.594.184 0 .204-.168.246-.294a5.88 5.88 0 0 0 .184-.818l.4-3.144-.227-29.48z" fill="#6cac48"/><path d="M38.087 42.727c.04-.478.267-.875.513-1.27-.247-.104-.43-.31-.574-.54-.124-.208-.226-.458-.306-.687-.287-.875-.348-1.793-.43-2.687V37c-.102.084-.124.79-.124.896-.06.945-.183 1.884-.37 2.812-.06.375-.102.75-.33 1.083a.42.42 0 0 0 .02.146c.37 1.104.47 2.23.533 3.375v.418c0 .5-.02.394.388.562.165.062.348.084.513.208.124 0 .144-.104.144-.188l-.06-.687v-1.917c-.02-.335.04-.667.082-.98l.001-.001z" fill="#c2bfbf"/></svg>